<?xml version="1.0" encoding="iso-8859-1"?>
<!-- Generator: Adobe Illustrator 19.0.0, SVG Export Plug-In . SVG Version: 6.00 Build 0)  -->
<svg version="1.1" id="Capa_1" xmlns="http://www.w3.org/2000/svg" xmlns:xlink="http://www.w3.org/1999/xlink" x="0px" y="0px"
	 viewBox="0 0 512 512" style="enable-background:new 0 0 512 512;" xml:space="preserve">
<g>
	<g>
		<polygon points="180.005,46.003 180.005,76.002 218.791,76.002 139.398,155.394 160.611,176.607 240.004,97.215 240.004,136.002 
			270.003,136.002 270.003,46.003 		"/>
	</g>
</g>
<g>
	<g>
		<path d="M467.232,136.002H339.366l-219.361,191.94V271c0-11.517-4.354-22.032-11.495-30c7.142-7.968,11.495-18.483,11.495-30
			c0-24.813-20.187-44.999-44.999-44.999s-44.999,20.187-44.999,44.999c0,11.517,4.354,22.032,11.495,30
			c-7.142,7.968-11.495,18.483-11.495,30v77.55c-17.137,6.037-30.005,22.48-30.003,42.438c0.001,20.6,0,42.81-0.002,60.007
			L0,465.997c19.834,0,479.226,0,512,0c0-9.686,0-282.374,0-285.114C512.001,156.093,492.058,136,467.232,136.002z M75.006,196.001
			c8.271,0,15,6.729,15,15s-6.729,15-15,15s-15-6.729-15-15S66.735,196.001,75.006,196.001z M60.006,271c0-8.271,6.729-15,15-15
			s15,6.729,15,15v74.999h-30V271z M30.003,435.998c0.001-14.153,0.001-30.009,0-45.011c0-8.284,6.703-14.988,15-14.988h65.639
			l239.997-209.997l116.595-0.004c8.148,0,14.767,6.582,14.767,14.885V226H397.86c-39.814,34.865-210.367,185.388-238.491,209.997
			H30.003z M482,435.998L482,435.998H204.925L410.634,256H482V435.998z"/>
	</g>
</g>
<g>
</g>
<g>
</g>
<g>
</g>
<g>
</g>
<g>
</g>
<g>
</g>
<g>
</g>
<g>
</g>
<g>
</g>
<g>
</g>
<g>
</g>
<g>
</g>
<g>
</g>
<g>
</g>
<g>
</g>
</svg>
