<?xml version="1.0" encoding="iso-8859-1"?>
<!-- Generator: Adobe Illustrator 16.0.0, SVG Export Plug-In . SVG Version: 6.00 Build 0)  -->
<!DOCTYPE svg PUBLIC "-//W3C//DTD SVG 1.1//EN" "http://www.w3.org/Graphics/SVG/1.1/DTD/svg11.dtd">
<svg xmlns="http://www.w3.org/2000/svg" xmlns:xlink="http://www.w3.org/1999/xlink" version="1.1" id="Capa_1" x="0px" y="0px" width="512px" height="512px" viewBox="0 0 106.048 106.048" style="enable-background:new 0 0 106.048 106.048;" xml:space="preserve">
<g>
	<path d="M36.061,16.59l1.734-0.324c0.101,1.152-0.82,4.371-2.985,8.277   c-2.884,5.176-5.095,7.164-5.895,7.271l-0.207-0.27c-0.267-1.142,0.714-4.992,3.192-9.652   C33.119,19.604,34.735,17.616,36.061,16.59z M106.048,21.209v63.629c0,11.666-9.543,21.21-21.21,21.21H21.209   C9.543,106.048,0,96.504,0,84.838V21.209C0,9.543,9.543,0,21.209,0h63.628C96.505,0,106.048,9.543,106.048,21.209z M90.348,27.762   c-2.31,0.217-12.023-1.584-15.545-2.586c-3.531-1.002-6.658-7.195-12.955-5.181c-6.297,2.009-11.263-2.597-15.548-2.597   c-2.969,0-4.528-0.749-5.911-1.543c-0.09-0.95-0.45-1.72-1.209-2.165c-0.5-0.292-1.046-0.435-1.624-0.435   c-0.875,0-1.74,0.37-2.555,0.901L17.8,17.419v-0.021h-2.592v75.394H17.8V21.797l8.702,11.125c0.081,0.166,0.223,0.282,0.329,0.425   l0.319,0.404l0.036-0.044c0.122,0.126,0.187,0.282,0.344,0.375c0.404,0.23,0.844,0.342,1.31,0.342h0.005   c0.51,0,1.046-0.197,1.603-0.489c2.571,0.891,6.367,1.781,8.075,1.607c2.395-0.261,5.763,0.953,7.777,2.587   c2.015,1.634,10.939-0.51,12.953,0c2.015,0.51,7.97,4.052,10.367,5.181c2.387,1.139,11.692,0.383,12.955,0   c1.259-0.37,5.966-9.157,6.592-10.356C89.799,31.757,91.735,27.641,90.348,27.762z M31.713,17.419L19.48,19.741l6.972,8.93   c0.697-3.081,2.372-6.506,3.162-7.992C29.79,20.35,30.584,18.928,31.713,17.419z" fill="#006DF0"/>
</g>
<g>
</g>
<g>
</g>
<g>
</g>
<g>
</g>
<g>
</g>
<g>
</g>
<g>
</g>
<g>
</g>
<g>
</g>
<g>
</g>
<g>
</g>
<g>
</g>
<g>
</g>
<g>
</g>
<g>
</g>
</svg>
