<?xml version="1.0"?>
<svg xmlns="http://www.w3.org/2000/svg" height="512px" viewBox="0 0 512 512" width="512px" class=""><g><path d="m434.90625 77.027344-70.394531 18.011718-61.382813-38.882812-4.621094 72.515625-55.953124 46.363281 52.316406 20.765625-294.871094 294.867188 21.265625 21.265625 294.871094-294.867188 20.761719 52.316406 46.363281-55.953124 72.515625-4.621094-38.882813-61.386719zm-66.515625 107.210937-22.261719 26.867188-12.871094-32.429688-32.425781-12.867187 26.863281-22.261719 2.21875-34.816406 29.472657 18.667969 33.796875-8.648438-8.648438 33.796875 18.667969 29.472656zm0 0" data-original="#000000" class="active-path" data-old_color="#755555" fill="#EFECCA"/><path d="m358.828125 0h30.074219v48.46875h-30.074219zm0 0" data-original="#000000" class="active-path" data-old_color="#755555" fill="#EFECCA"/><path d="m463.535156 126.667969h48.464844v30.078125h-48.464844zm0 0" data-original="#000000" class="active-path" data-old_color="#755555" fill="#EFECCA"/><path d="m453.898438 36.441406 36.351562-36.3515622 21.265625 21.2695312-36.347656 36.347656zm0 0" data-original="#000000" class="active-path" data-old_color="#755555" fill="#EFECCA"/></g> </svg>
