<?xml version="1.0"?>
<svg xmlns="http://www.w3.org/2000/svg" height="512px" viewBox="0 0 512 512" width="512px"><path d="m256 121.769531c-74.015625 0-134.234375 60.214844-134.234375 134.230469s60.21875 134.230469 134.234375 134.230469 134.230469-60.214844 134.230469-134.230469-60.214844-134.230469-134.230469-134.230469zm0 238.417969c-57.449219 0-104.1875-46.738281-104.1875-104.1875s46.738281-104.1875 104.1875-104.1875 104.1875 46.738281 104.1875 104.1875-46.738281 104.1875-104.1875 104.1875zm0 0" fill="#FFFFFF"/><path d="m512 256-53.457031-54.285156 19.191406-73.761719-73.488281-20.195313-20.199219-73.492187-73.761719 19.191406-54.285156-53.457031-54.28125 53.457031-73.765625-19.191406-20.195313 73.492187-73.492187 20.195313 19.191406 73.765625-53.457031 54.28125 53.457031 54.28125-19.195312 73.765625 73.492187 20.195313 20.195313 73.492187 73.765625-19.191406 54.285156 53.457031 54.28125-53.457031 73.765625 19.191406 20.195313-73.492187 73.492187-20.195313-19.191406-73.765625zm-132.199219 123.800781-16.871093 61.394531-61.582032-16.023437-45.347656 44.65625-45.347656-44.65625-61.582032 16.019531-16.871093-61.390625-61.394531-16.871093 16.023437-61.582032-44.65625-45.347656 44.65625-45.347656-16.023437-61.582032 61.394531-16.871093 16.871093-61.394531 61.582032 16.023437 45.347656-44.65625 45.347656 44.65625 61.582032-16.019531 16.871093 61.390625 61.390625 16.875-16.019531 61.578125 44.65625 45.347656-44.65625 45.347656 16.023437 61.582032zm0 0" fill="#FFFFFF"/></svg>
